<svg width="682" height="338" viewBox="0 0 682 338" fill="none" xmlns="http://www.w3.org/2000/svg">
<path d="M681.531 140.264C681.531 216.996 625.329 279.854 556.563 279.854H401.266L367.722 337.354H291.821L361.814 207.634C365.351 200.658 371.195 195.122 378.353 191.969C382.709 190.096 387.402 189.137 392.143 189.149H536.217C560.271 189.149 579.927 167.209 579.927 140.363C579.927 113.517 560.271 91.577 536.217 91.577H401.534L400.532 93.41L306.429 262.624C305.743 263.887 304.966 265.099 304.103 266.248C302.503 268.467 300.606 270.455 298.463 272.156C295.152 274.959 291.318 277.078 287.183 278.388C285.002 279.077 282.758 279.549 280.485 279.798H125.935C57.1692 279.798 0.924316 216.996 0.924316 140.208C0.924316 63.4193 57.1692 0.61792 125.935 0.61792H304.145L274.45 91.4501H146.225C122.255 91.4501 102.515 113.39 102.515 140.236C102.515 167.083 122.255 189.022 146.225 189.022H269.684L271.235 186.202L364.662 18.1301C367.826 12.4326 372.585 7.7822 378.353 4.74921C380.247 3.75716 382.224 2.93155 384.261 2.28171C385.6 1.87281 386.968 1.54851 388.294 1.26651C390.26 0.899613 392.257 0.715529 394.258 0.716609H556.563C625.329 0.716609 681.531 63.5321 681.531 140.264Z" fill="#072D58"/>
</svg>
