<svg width="614" height="304" viewBox="0 0 614 304" fill="none" xmlns="http://www.w3.org/2000/svg">
<path d="M614 126C614 195.13 563.35 251.72 501.4 251.72H361.47L331.26 303.5H262.86L325.93 186.64C329.116 180.355 334.381 175.369 340.83 172.53C344.75 170.815 348.982 169.93 353.26 169.93H483.07C504.74 169.93 522.45 150.15 522.45 125.93C522.45 101.71 504.74 81.93 483.07 81.93H361.72L360.81 83.58L276 236.22C275.383 237.36 274.677 238.45 273.89 239.48C272.474 241.473 270.792 243.263 268.89 244.8C265.898 247.332 262.43 249.239 258.69 250.41C256.739 251.039 254.728 251.468 252.69 251.69H113.4C51.4 251.69 0.75 195.1 0.75 125.97C0.75 56.84 51.44 0.23999 113.4 0.23999H274L247.22 82H131.68C110.05 82 92.31 101.77 92.31 126C92.31 150.23 110.05 170 131.68 170H242.92L242.97 169.95L244.37 167.44L328.49 15.99C331.343 10.8577 335.631 6.66981 340.83 3.94C342.539 3.04342 344.322 2.29726 346.16 1.70999C347.35 1.33999 348.59 1.04999 349.79 0.799988C351.558 0.471533 353.352 0.307509 355.15 0.309998H501.4C563.35 0.239998 614 56.83 614 126Z" fill="white"/>
</svg>
